<?xml version="1.0" standalone="no"?>
<!DOCTYPE svg PUBLIC "-//W3C//DTD SVG 20010904//EN"
 "http://www.w3.org/TR/2001/REC-SVG-20010904/DTD/svg10.dtd">
<svg version="1.0" xmlns="http://www.w3.org/2000/svg"
 width="375.000000pt" height="375.000000pt" viewBox="0 0 375.000000 375.000000"
 preserveAspectRatio="xMidYMid meet">
<metadata>
Created by potrace 1.14, written by Peter Selinger 2001-2017
</metadata>
<g transform="translate(0.000000,375.000000) scale(0.100000,-0.100000)"
fill="#000000" stroke="none">
<path d="M329 2434 c0 -10 -2 -28 -4 -39 -3 -11 -7 -45 -11 -75 -6 -55 -23
-104 -24 -69 0 9 -6 29 -14 45 -25 50 -42 94 -45 114 0 6 -6 10 -12 10 -6 0
-7 -5 -2 -12 4 -7 8 -22 9 -33 1 -11 4 -33 8 -50 3 -16 9 -46 11 -65 6 -39 8
-40 -48 34 -31 41 -69 83 -65 71 4 -12 56 -123 69 -147 16 -31 10 -30 -53 15
-35 24 -70 47 -78 52 -16 10 13 -30 63 -85 64 -71 65 -69 -10 -49 -88 25 -107
24 -58 -2 22 -12 43 -27 47 -33 4 -6 8 -7 8 -3 0 5 13 0 29 -9 28 -17 33 -37
8 -32 -14 2 -130 -22 -125 -27 2 -1 43 -5 91 -9 82 -5 91 -8 120 -36 l32 -31
2 -167 c2 -195 -1 -215 -33 -233 -40 -21 -28 -32 29 -25 28 4 57 7 62 7 19 1
87 -11 95 -16 4 -3 10 2 13 10 4 8 -2 16 -14 20 -10 4 -24 16 -30 27 -11 20
-19 335 -9 345 3 2 5 13 5 22 0 10 14 30 31 44 31 26 66 34 157 36 66 2 28 23
-60 34 -41 5 -34 14 37 51 96 51 94 53 -19 26 -24 -6 -45 -9 -47 -7 -2 1 7 15
19 29 12 15 37 44 54 66 18 21 36 42 40 47 14 16 -95 -53 -121 -77 -11 -10
-21 -16 -23 -14 -4 4 20 62 59 141 l20 40 -24 -25 c-12 -14 -41 -49 -63 -77
-21 -29 -40 -53 -41 -53 0 0 7 41 18 91 18 86 20 150 3 84 -5 -16 -20 -56 -35
-87 -15 -31 -25 -60 -21 -64 3 -4 0 -4 -7 0 -7 4 -12 19 -11 34 0 15 -2 38 -5
52 -3 14 -9 45 -12 70 -6 48 -14 66 -15 34z"/>
<path d="M2176 1850 c-15 -48 -15 -80 0 -80 8 0 13 4 9 9 -9 15 25 42 49 39
20 -3 21 -8 20 -122 -1 -113 -2 -120 -25 -138 l-24 -19 50 4 c28 2 62 0 78 -4
31 -9 35 1 9 24 -16 15 -18 32 -17 129 2 62 3 117 4 121 2 17 46 1 57 -21 19
-38 23 -36 22 10 l0 45 -107 -2 c-64 -1 -109 3 -113 9 -4 7 -9 5 -12 -4z"/>
<path d="M550 1841 c0 -2 7 -13 17 -23 24 -26 23 -230 -1 -257 -22 -24 -20
-32 6 -22 13 4 35 5 50 0 31 -9 38 6 12 26 -12 8 -17 32 -19 91 -1 43 -1 82 2
87 3 5 91 -112 157 -210 1 -1 11 0 22 3 18 5 19 14 18 127 0 117 6 153 30 169
6 5 7 8 1 8 -73 6 -95 5 -95 -2 0 -4 4 -8 9 -8 5 0 13 -10 17 -22 9 -28 12
-158 4 -158 -7 0 -23 22 -85 110 -54 77 -63 85 -107 85 -21 0 -38 -2 -38 -4z"/>
<path d="M977 1843 c-3 -2 8 -30 23 -61 16 -31 43 -99 61 -150 27 -79 35 -93
52 -90 16 2 28 28 62 132 28 88 48 135 64 147 13 11 20 19 17 20 -9 1 -84 1
-98 -1 -8 0 -5 -6 6 -15 19 -14 19 -16 -3 -87 -12 -40 -23 -79 -23 -86 -2 -25
-17 5 -41 86 -23 74 -24 84 -10 89 14 6 14 7 -3 13 -10 4 -29 4 -40 -1 -12 -4
-25 -5 -28 -1 -8 8 -33 11 -39 5z"/>
<path d="M1380 1838 c0 -4 7 -14 15 -22 23 -22 20 -242 -3 -255 -23 -13 -5
-33 19 -20 11 5 30 7 42 3 26 -8 126 -8 135 0 9 10 11 76 2 76 -5 0 -12 -9
-15 -20 -7 -21 -41 -34 -72 -28 -19 3 -32 47 -25 86 3 17 11 22 33 22 20 0 29
-5 29 -16 0 -8 4 -13 9 -9 12 7 12 85 1 85 -4 0 -10 -7 -14 -15 -11 -30 -65
-10 -60 23 1 6 2 25 3 41 1 24 5 28 29 27 15 -1 37 -12 48 -25 l22 -23 -2 38
-1 39 -98 0 c-53 0 -97 -3 -97 -7z"/>
<path d="M1735 1842 c-2 -2 5 -12 14 -21 15 -15 18 -37 19 -128 1 -96 -2 -113
-19 -131 -21 -23 -25 -37 -8 -26 6 3 32 6 57 6 l45 -1 -21 20 c-19 17 -22 30
-22 107 l1 87 22 -29 c12 -17 47 -66 78 -110 42 -61 61 -80 80 -81 24 -2 24
-2 23 97 -1 55 -4 102 -7 105 -4 3 -3 13 2 22 5 9 7 24 6 33 -2 9 3 22 11 29
24 20 16 25 -33 22 -27 -1 -49 -2 -50 -2 -2 -1 6 -10 17 -21 17 -17 20 -33 20
-102 l0 -82 -39 55 c-118 162 -111 155 -153 154 -22 0 -41 -1 -43 -3z"/>
<path d="M2550 1838 c0 -3 5 -8 11 -10 7 -2 13 -36 16 -83 6 -134 12 -160 39
-186 37 -34 121 -34 158 0 30 28 36 54 40 170 2 68 6 86 21 97 10 8 17 14 14
15 -2 0 -25 1 -51 2 -49 3 -61 -5 -33 -21 20 -11 23 -190 3 -221 -19 -31 -50
-41 -81 -25 -33 18 -41 46 -40 152 0 69 3 85 19 97 11 8 17 15 14 15 -32 5
-130 3 -130 -2z"/>
<path d="M2978 1839 c-6 -4 -1 -10 11 -14 23 -7 24 -14 22 -164 -1 -61 -5 -89
-17 -102 -18 -20 -8 -30 21 -19 11 4 40 5 65 3 43 -4 44 -3 25 12 -14 11 -20
30 -22 65 -2 43 0 49 17 47 14 -1 25 -15 36 -44 9 -24 25 -52 34 -63 21 -24
71 -36 96 -22 17 10 16 11 -8 22 -26 12 -78 94 -78 122 0 8 9 23 20 33 11 10
17 21 15 25 -3 5 -1 10 3 12 16 6 -8 67 -31 80 -23 13 -191 18 -209 7z m159
-38 c13 -19 10 -76 -7 -96 -6 -7 -20 -13 -31 -12 -18 1 -20 8 -18 62 2 33 4
63 6 67 5 10 36 -3 50 -21z"/>
<path d="M3400 1843 c0 -5 7 -17 15 -27 11 -15 15 -48 15 -128 0 -93 -3 -111
-19 -127 -19 -19 -19 -20 42 -20 34 -1 73 -2 87 -4 52 -6 73 6 77 46 4 41 -7
49 -22 15 -7 -16 -20 -24 -44 -26 -41 -4 -51 8 -51 66 0 40 1 42 30 42 20 0
30 -5 30 -15 0 -8 4 -15 10 -15 5 0 9 20 8 45 -1 50 -3 52 -24 30 -9 -8 -24
-15 -34 -15 -15 0 -18 9 -19 54 0 53 0 53 28 51 36 -3 51 -12 51 -31 0 -8 4
-13 9 -9 5 3 9 19 9 35 -1 34 -20 43 -78 35 -47 -7 -71 -7 -97 0 -13 3 -23 2
-23 -2z"/>
<path d="M747 1484 c-1 -1 -47 -5 -102 -8 -85 -6 -169 -17 -297 -41 -15 -3
-40 -10 -55 -16 -16 -6 -29 -10 -31 -9 -1 1 -15 -1 -31 -5 -23 -5 -28 -11 -26
-33 2 -35 9 -35 180 1 39 8 90 18 115 21 101 12 158 18 205 22 74 5 439 5 520
-1 102 -6 245 -16 285 -20 174 -14 232 -20 335 -29 87 -9 185 -15 295 -21 47
-2 114 -6 150 -9 36 -3 99 -9 140 -12 41 -4 90 -7 108 -7 17 0 32 -3 32 -6 0
-14 476 -2 559 14 10 2 42 6 71 10 29 4 60 8 69 10 134 28 176 38 208 51 21 9
38 15 38 14 0 -6 94 26 125 43 19 10 26 15 15 12 -66 -21 -177 -50 -285 -74
-47 -11 -85 -20 -85 -21 0 0 -20 -3 -45 -5 -25 -3 -61 -7 -80 -10 -115 -18
-418 -24 -560 -11 -36 3 -90 8 -120 11 -30 2 -80 7 -110 10 -30 3 -86 7 -125
10 -38 3 -88 7 -110 10 -76 8 -140 14 -210 20 -38 3 -86 7 -105 10 -49 5 -156
16 -210 20 -25 2 -63 6 -85 9 -22 3 -74 8 -115 11 -41 3 -93 8 -115 11 -92 11
-539 26 -548 18z"/>
</g>
</svg>
